<svg version="1.1" xmlns="http://www.w3.org/2000/svg" xmlns:xlink="http://www.w3.org/1999/xlink" width="512" height="512" viewBox="0,0,256,256"><g fill="#ffffff" fill-rule="nonzero" stroke="none" stroke-width="1" stroke-linecap="butt" stroke-linejoin="miter" stroke-miterlimit="10" stroke-dasharray="" stroke-dashoffset="0" font-family="none" font-weight="none" font-size="none" text-anchor="none" style="mix-blend-mode: normal"><g transform="scale(10.66667,10.66667)"><path d="M19.5,0h-15c-2.48414,0.00276 -4.49724,2.01586 -4.5,4.5v15c0.00276,2.48414 2.01586,4.49724 4.5,4.5h15c2.48414,-0.00276 4.49724,-2.01586 4.5,-4.5v-15c-0.00276,-2.48414 -2.01586,-4.49724 -4.5,-4.5zM4.5,3h15c0.82843,0 1.5,0.67157 1.5,1.5v15c0.00053,0.39787 -0.15787,0.77947 -0.44,1.06l-8.732,-8.732c-1.562,-1.56153 -4.094,-1.56153 -5.656,0l-3.172,3.172v-10.5c0,-0.82843 0.67157,-1.5 1.5,-1.5z"></path><circle cx="15.5" cy="7.5" r="2.5"></circle></g></g></svg>