<svg version="1.1" xmlns="http://www.w3.org/2000/svg" xmlns:xlink="http://www.w3.org/1999/xlink" width="512" height="512" viewBox="0,0,256,256"><g fill="#ffffff" fill-rule="nonzero" stroke="none" stroke-width="1" stroke-linecap="butt" stroke-linejoin="miter" stroke-miterlimit="10" stroke-dasharray="" stroke-dashoffset="0" font-family="none" font-weight="none" font-size="none" text-anchor="none" style="mix-blend-mode: normal"><g transform="translate(0.46641,-0.4691) scale(10.66667,10.66667)"><path d="M22.853,1.148c-1.41559,-1.41342 -3.70841,-1.41342 -5.124,0l-16.264,16.264c-0.94075,0.93546 -1.46826,2.20832 -1.465,3.535v2.053c0,0.55228 0.44772,1 1,1h2.053c1.32658,0.00375 2.59951,-0.52343 3.535,-1.464l16.265,-16.265c1.41275,-1.41547 1.41275,-3.70753 0,-5.123zM5.174,21.122c-0.564,0.56025 -1.32604,0.8757 -2.121,0.878h-1.053v-1.053c-0.00204,-0.79602 0.31448,-1.55978 0.879,-2.121l12.343,-12.343l2.3,2.3zM21.438,4.857l-2.506,2.507l-2.3,-2.295l2.507,-2.507c0.63513,-0.63375 1.66375,-0.63263 2.2975,0.0025c0.63375,0.63513 0.63263,1.66375 -0.0025,2.2975z"></path></g></g></svg>