<svg version="1.1" xmlns="http://www.w3.org/2000/svg" xmlns:xlink="http://www.w3.org/1999/xlink" width="512" height="512" viewBox="0,0,256,256"><g fill="#ffffff" fill-rule="nonzero" stroke="none" stroke-width="1" stroke-linecap="butt" stroke-linejoin="miter" stroke-miterlimit="10" stroke-dasharray="" stroke-dashoffset="0" font-family="none" font-weight="none" font-size="none" text-anchor="none" style="mix-blend-mode: normal"><g transform="scale(10.66667,10.66667)"><path d="M22.5,15.5c-0.82843,0 -1.5,0.67157 -1.5,1.5v1.5c0,1.38071 -1.11929,2.5 -2.5,2.5h-1.5c-0.82843,0 -1.5,0.67157 -1.5,1.5c0,0.82843 0.67157,1.5 1.5,1.5h1.5c3.0362,-0.00331 5.49669,-2.4638 5.5,-5.5v-1.5c0,-0.82843 -0.67157,-1.5 -1.5,-1.5z"></path><path d="M1.5,8.5c0.82843,0 1.5,-0.67157 1.5,-1.5v-1.5c0,-1.38071 1.11929,-2.5 2.5,-2.5h1.5c0.82843,0 1.5,-0.67157 1.5,-1.5c0,-0.82843 -0.67157,-1.5 -1.5,-1.5h-1.5c-3.0362,0.00331 -5.49669,2.4638 -5.5,5.5v1.5c0,0.82843 0.67157,1.5 1.5,1.5z"></path><path d="M7,21h-1.5c-1.38071,0 -2.5,-1.11929 -2.5,-2.5v-1.5c0,-0.82843 -0.67157,-1.5 -1.5,-1.5c-0.82843,0 -1.5,0.67157 -1.5,1.5v1.5c0.00331,3.0362 2.4638,5.49669 5.5,5.5h1.5c0.82843,0 1.5,-0.67157 1.5,-1.5c0,-0.82843 -0.67157,-1.5 -1.5,-1.5z"></path><path d="M18.5,0h-1.5c-0.82843,0 -1.5,0.67157 -1.5,1.5c0,0.82843 0.67157,1.5 1.5,1.5h1.5c1.38071,0 2.5,1.11929 2.5,2.5v1.5c0,0.82843 0.67157,1.5 1.5,1.5c0.82843,0 1.5,-0.67157 1.5,-1.5v-1.5c-0.00331,-3.0362 -2.4638,-5.49669 -5.5,-5.5z"></path><circle cx="12" cy="7.5" r="3.5"></circle><path d="M6.11,17.848c-0.04691,0.28909 0.03619,0.58414 0.22707,0.80625c0.19088,0.22212 0.47008,0.34864 0.76293,0.34575h9.8c0.2932,0.00349 0.57295,-0.12278 0.76429,-0.34497c0.19133,-0.22219 0.27468,-0.51759 0.22771,-0.80703c-0.54756,-2.82009 -3.01724,-4.85637 -5.89,-4.85637c-2.87276,0 -5.34244,2.03627 -5.89,4.85637z"></path></g></g></svg>