<svg version="1.1" xmlns="http://www.w3.org/2000/svg" xmlns:xlink="http://www.w3.org/1999/xlink" width="512" height="512" viewBox="0,0,256,256"><g fill="#ffffff" fill-rule="nonzero" stroke="none" stroke-width="1" stroke-linecap="butt" stroke-linejoin="miter" stroke-miterlimit="10" stroke-dasharray="" stroke-dashoffset="0" font-family="none" font-weight="none" font-size="none" text-anchor="none" style="mix-blend-mode: normal"><g transform="translate(-0.36037,-0.19681) scale(10.66667,10.66667)"><path d="M4.943,5.606l-3.919,3.919c-1.32191,1.38524 -1.32191,3.56476 0,4.95l3.919,3.919c0.37661,0.38993 0.93432,0.54632 1.45876,0.40905c0.52444,-0.13727 0.93401,-0.54684 1.07128,-1.07128c0.13727,-0.52444 -0.01911,-1.08215 -0.40905,-1.45876l-2.779,-2.781l18.25,-0.023c0.82843,0 1.5,-0.67157 1.5,-1.5v0c0,-0.82843 -0.67157,-1.5 -1.5,-1.5l-18.235,0.023l2.764,-2.765c0.56846,-0.58857 0.56033,-1.52413 -0.01827,-2.10273c-0.5786,-0.5786 -1.51416,-0.58673 -2.10273,-0.01827z"></path></g></g></svg>